<svg width="158" height="32" viewBox="0 0 158 32" fill="none" xmlns="http://www.w3.org/2000/svg">
<path d="M3.98394 30.7952C6.1842 30.7952 7.96787 29.0115 7.96787 26.8112C7.96787 24.611 6.1842 22.8273 3.98394 22.8273C1.78367 22.8273 0 24.611 0 26.8112C0 29.0115 1.78367 30.7952 3.98394 30.7952Z" fill="white"/>
<path d="M27.1272 30.7952C29.3275 30.7952 31.1111 29.0115 31.1111 26.8112C31.1111 24.611 29.3275 22.8273 27.1272 22.8273C24.9269 22.8273 23.1432 24.611 23.1432 26.8112C23.1432 29.0115 24.9269 30.7952 27.1272 30.7952Z" fill="white"/>
<path d="M15.2236 22.838H15.2664C16.8283 22.7384 18.3018 22.0786 19.4163 20.9799L21.3066 19.0843C22.3806 17.9967 23.0367 16.5651 23.1593 15.0415V14.9933C23.235 14.243 23.5221 13.5296 23.9871 12.9361C24.4522 12.3425 25.0762 11.8931 25.7866 11.6401C26.4969 11.3871 27.2645 11.3409 28.0001 11.5069C28.7357 11.6729 29.4091 12.0442 29.9419 12.5778C30.4748 13.1113 30.8453 13.7851 31.0104 14.5209C31.1755 15.2567 31.1284 16.0242 30.8745 16.7343C30.6207 17.4444 30.1705 18.0678 29.5763 18.5321C28.9822 18.9965 28.2685 19.2827 27.5181 19.3574H27.4753C25.9516 19.4801 24.52 20.1361 23.4324 21.2102L21.3762 23.2664C20.3175 24.3362 19.6579 25.7367 19.5074 27.2343V27.3092C19.4177 28.0576 19.1175 28.7652 18.6418 29.3499C18.166 29.9345 17.5341 30.3721 16.8196 30.612C16.105 30.8519 15.337 30.8841 14.6049 30.705C13.8727 30.5258 13.2064 30.1426 12.6833 29.5999C12.1602 29.0572 11.8018 28.3773 11.6497 27.639C11.4977 26.9008 11.5581 26.1345 11.8241 25.4293C12.0901 24.724 12.5507 24.1087 13.1525 23.6547C13.7542 23.2008 14.4724 22.9269 15.2236 22.8648V22.838Z" fill="white"/>
<path d="M15.9357 22.8434H15.8393C14.3331 22.7353 12.9148 22.0935 11.8393 21.0335L9.81525 19.0361C8.74025 17.9632 8.08006 16.5442 7.9518 15.0308V14.9933C7.87228 14.2439 7.58186 13.5325 7.11426 12.9416C6.64665 12.3506 6.02104 11.9044 5.31003 11.6548C4.59902 11.4051 3.83179 11.3622 3.09739 11.5311C2.36298 11.6999 1.69153 12.0736 1.16097 12.6087C0.630409 13.1439 0.262501 13.8185 0.099953 14.5543C-0.0625952 15.2902 -0.0131177 16.057 0.242642 16.7658C0.498402 17.4747 0.949955 18.0964 1.54489 18.5589C2.13982 19.0215 2.85372 19.3058 3.60374 19.3788H3.70548C5.2117 19.487 6.62998 20.1287 7.70548 21.1887L9.72957 23.1861C10.8046 24.259 11.4648 25.678 11.593 27.1914V27.2396C11.6725 27.9892 11.963 28.7009 12.4308 29.2921C12.8986 29.8832 13.5245 30.3294 14.2358 30.579C14.9471 30.8286 15.7146 30.8712 16.4492 30.702C17.1837 30.5328 17.8552 30.1586 18.3856 29.623C18.916 29.0873 19.2836 28.4122 19.4456 27.676C19.6076 26.9398 19.5574 26.1727 19.3009 25.4639C19.0443 24.7551 18.592 24.1336 17.9963 23.6716C17.4006 23.2096 16.6861 22.9262 15.9357 22.8541V22.8434Z" fill="white"/>
<path d="M15.2236 11.427H15.2664C16.8289 11.3298 18.3032 10.6697 19.4163 9.56893L21.3066 7.6787C22.3806 6.59108 23.0367 5.1595 23.1593 3.63586V3.58767C23.234 2.83704 23.5202 2.12304 23.9848 1.52871C24.4493 0.934377 25.073 0.48414 25.7834 0.230363C26.4937 -0.0234145 27.2616 -0.0703012 27.9975 0.0951556C28.7335 0.260612 29.4074 0.631613 29.9408 1.16501C30.4741 1.6984 30.8451 2.37227 31.0106 3.10823C31.1761 3.8442 31.1292 4.61201 30.8754 5.32237C30.6216 6.03274 30.1714 6.65645 29.5771 7.12098C28.9827 7.58551 28.2687 7.87176 27.5181 7.94644H27.4753C25.9509 8.06635 24.5184 8.72282 23.4324 9.79918L21.3762 11.8501C20.3175 12.922 19.6579 14.3242 19.5074 15.8233V15.8661C19.4177 16.6145 19.1175 17.3221 18.6418 17.9067C18.166 18.4914 17.5341 18.929 16.8196 19.1689C16.105 19.4088 15.337 19.441 14.6049 19.2618C13.8727 19.0827 13.2064 18.6995 12.6833 18.1568C12.1602 17.6141 11.8018 16.9342 11.6497 16.1959C11.4977 15.4577 11.5581 14.6914 11.8241 13.9861C12.0901 13.2809 12.5507 12.6656 13.1525 12.2116C13.7542 11.7577 14.4724 11.4838 15.2236 11.4217V11.427Z" fill="white"/>
<path d="M15.8875 11.427H15.8393C14.2786 11.329 12.8063 10.6689 11.6948 9.56894L9.80453 7.67871C8.72817 6.59268 8.0717 5.16022 7.95179 3.63587V3.58768C7.87703 2.83731 7.59085 2.12357 7.12651 1.52942C6.66217 0.935263 6.03873 0.485093 5.32867 0.231232C4.61861 -0.0226292 3.85108 -0.0697547 3.11529 0.0953328C2.3795 0.26042 1.70568 0.63094 1.17214 1.16383C0.638597 1.69671 0.267249 2.37008 0.101259 3.10567C-0.0647319 3.84125 -0.0185488 4.60884 0.23444 5.31921C0.487429 6.02958 0.936834 6.65357 1.53042 7.11864C2.124 7.58371 2.83739 7.87077 3.58766 7.94645H3.6305C5.15485 8.06636 6.58732 8.72283 7.67334 9.79919L9.72421 11.8501C10.7869 12.9192 11.4471 14.3229 11.593 15.8233V15.8661C11.6827 16.6145 11.9829 17.3221 12.4586 17.9068C12.9344 18.4914 13.5663 18.929 14.2808 19.1689C14.9954 19.4088 15.7634 19.441 16.4955 19.2619C17.2277 19.0827 17.894 18.6995 18.4171 18.1568C18.9402 17.6141 19.2986 16.9342 19.4506 16.1959C19.6027 15.4577 19.5423 14.6914 19.2763 13.9862C19.0103 13.2809 18.5497 12.6656 17.9479 12.2116C17.3462 11.7577 16.628 11.4838 15.8768 11.4217L15.8875 11.427Z" fill="white"/>
<path d="M46.838 26.4525H42.3454V6.18474H50.2544L52.7872 14.0241C53.1941 15.3039 53.901 17.8742 54.4739 20.2731H55.0522C55.5877 17.8742 56.2678 15.2718 56.739 13.8474L59.2718 6.17938H66.5703V26.4525H61.7028V17.9759C61.7028 15.5074 61.8421 12.5676 61.9063 10.1365H61.403C60.7229 12.7711 59.8822 15.8447 58.8648 18.8541L56.5034 25.3708H52.0107L49.7457 18.7416C48.7283 15.5288 47.9572 12.7068 47.3146 10.1365H46.7791C46.8113 12.6051 46.8113 15.4913 46.8113 17.9759L46.838 26.4525Z" fill="white" stroke="white" stroke-width="0.21419" stroke-miterlimit="10"/>
<path d="M68.3267 18.4471C68.3267 13.0923 71.502 10.0027 76.5998 10.0027C81.6011 10.0027 84.8086 13.1084 84.8086 18.4471C84.8086 23.7858 81.7028 26.929 76.5998 26.929C71.4003 26.929 68.3267 23.7162 68.3267 18.4471ZM72.9157 18.415C72.9157 21.3172 73.9866 23.0093 76.5676 23.0093C79.1486 23.0093 80.2142 21.3172 80.2142 18.415C80.2142 15.5127 79.1004 13.8527 76.5676 13.8527C74.0348 13.8527 72.9157 15.5288 72.9157 18.415Z" fill="white" stroke="white" stroke-width="0.21419" stroke-miterlimit="10"/>
<path d="M85.6761 31.8929C85.1774 31.8816 84.6801 31.8369 84.1874 31.759L84.3909 27.8072C84.7443 27.872 85.1026 27.9061 85.4619 27.909C86.5328 27.909 86.8488 27.1968 86.8488 26.1526V10.4739H91.4431V25.5422C91.4645 29.4511 89.9117 31.8929 85.6761 31.8929ZM86.747 8.1767V4.86746H91.5663V8.1767H86.747Z" fill="white" stroke="white" stroke-width="0.21419" stroke-miterlimit="10"/>
<path d="M103.454 22.6345H103.052C102.238 25.1673 100.552 26.7737 97.8153 26.7737C95.079 26.7737 93.1191 25.3922 93.1191 22.249C93.1191 19.3788 94.8059 17.3869 99.0094 17.3869H103.197V16.2838C103.197 14.6292 102.49 13.6867 100.734 13.6867C99.2128 13.6867 98.3347 14.4257 98.0562 15.9839L93.7082 14.9933C94.2436 12.0857 96.4819 10.0241 100.905 10.0241C105.772 10.0241 107.764 12.257 107.764 16.2731V26.4471H103.454V22.6345ZM103.218 20.3052V19.6626H99.909C98.4204 19.6626 97.4779 20.3373 97.4779 21.4565C97.4779 22.4685 98.0509 23.2771 99.8072 23.2771C101.901 23.2771 103.218 22.0294 103.218 20.3052Z" fill="white" stroke="white" stroke-width="0.21419" stroke-miterlimit="10"/>
<path d="M119.604 22.6345H119.197C118.383 25.1673 116.696 26.7737 113.96 26.7737C111.224 26.7737 109.264 25.3922 109.264 22.249C109.264 19.3788 110.956 17.3869 115.154 17.3869H119.341V16.2838C119.341 14.6292 118.635 13.6867 116.878 13.6867C115.357 13.6867 114.479 14.4257 114.174 15.9839L109.874 14.9933C110.41 12.0857 112.643 10.0241 117.066 10.0241C121.933 10.0241 123.925 12.257 123.925 16.2731V26.4471H119.604V22.6345ZM119.363 20.3052V19.6626H116.054C114.57 19.6626 113.623 20.3373 113.623 21.4565C113.623 22.4685 114.195 23.2771 115.952 23.2771C118.046 23.2771 119.363 22.0294 119.363 20.3052Z" fill="white" stroke="white" stroke-width="0.21419" stroke-miterlimit="10"/>
<path d="M127.1 6.18472H140.75V8.38017H129.585V15.0361H139.588V17.178H129.585V24.257H140.771V26.4525H127.1V6.18472Z" fill="white" stroke="white" stroke-width="0.21419" stroke-miterlimit="10"/>
<path d="M149.831 19.2771H149.697L144.937 26.4525H142.501V26.083L148.214 18.3829L142.538 11.1165V10.747H145.071L149.971 17.7403H150.035L154.801 10.747H157.162V11.1165L151.588 18.6131L157.264 26.0776V26.4471H154.752L149.831 19.2771Z" fill="white" stroke="white" stroke-width="0.21419" stroke-miterlimit="10"/>
</svg>
